<?xml version="1.0" encoding="utf-8"?><!DOCTYPE svg PUBLIC "-//W3C//DTD SVG 1.1//EN" "http://www.w3.org/Graphics/SVG/1.1/DTD/svg11.dtd"><svg xmlns="http://www.w3.org/2000/svg" viewBox="0 0 51 51" shape-rendering="crispEdges"><path fill="#FFFFFF" d="M0 0h51v51H0z"/><path stroke="#073D2D" d="M5 5.5h7m2 0h1m2 0h2m9 0h2m3 0h5m1 0h7M5 6.5h1m5 0h1m3 0h4m4 0h2m1 0h1m4 0h1m1 0h1m1 0h1m1 0h1m1 0h1m5 0h1M5 7.5h1m1 0h3m1 0h1m3 0h2m1 0h3m2 0h2m2 0h2m1 0h3m1 0h1m2 0h1m1 0h1m1 0h3m1 0h1M5 8.5h1m1 0h3m1 0h1m2 0h3m1 0h1m2 0h1m3 0h1m10 0h1m2 0h1m1 0h3m1 0h1M5 9.5h1m1 0h3m1 0h1m1 0h3m2 0h2m2 0h1m1 0h3m2 0h1m2 0h1m3 0h1m2 0h1m1 0h3m1 0h1M5 10.5h1m5 0h1m4 0h1m1 0h1m1 0h1m1 0h1m1 0h1m2 0h1m1 0h2m2 0h1m1 0h2m2 0h1m5 0h1M5 11.5h7m1 0h1m1 0h1m1 0h1m1 0h1m1 0h1m1 0h1m1 0h1m1 0h1m1 0h1m1 0h1m1 0h1m1 0h1m1 0h1m1 0h7M13 12.5h1m1 0h1m6 0h1m2 0h2m1 0h1m1 0h1m1 0h1m1 0h2m1 0h1M7 13.5h2m2 0h3m2 0h4m1 0h1m3 0h3m1 0h1m3 0h3m2 0h2m1 0h1M5 14.5h2m3 0h1m1 0h1m2 0h1m2 0h3m2 0h1m1 0h2m1 0h1m1 0h1m2 0h9m1 0h1m1 0h1M6 15.5h2m3 0h2m2 0h1m1 0h1m1 0h1m1 0h3m2 0h3m2 0h1m2 0h2m2 0h4m1 0h2M5 16.5h1m1 0h2m3 0h2m2 0h6m2 0h3m1 0h1m1 0h1m1 0h1m4 0h1m2 0h2m3 0h1M5 17.5h1m1 0h2m1 0h3m3 0h2m3 0h3m2 0h1m1 0h2m1 0h1m2 0h1m1 0h2m1 0h1m2 0h3M5 18.5h2m1 0h1m5 0h1m1 0h3m4 0h3m1 0h2m4 0h2m2 0h1m5 0h1m1 0h1M8 19.5h2m1 0h1m3 0h1m3 0h1m5 0h3m4 0h2m1 0h3m1 0h2m1 0h1m1 0h2M8 20.5h1m4 0h2m1 0h1m3 0h2m1 0h2m1 0h5m2 0h1m1 0h1m3 0h1m5 0h1M8 21.5h2m1 0h1m3 0h1m2 0h2m1 0h2m1 0h2m3 0h1m1 0h2m2 0h1m1 0h1m3 0h1m2 0h2M7 22.5h4m2 0h2m2 0h1m3 0h2m1 0h1m1 0h1m4 0h2m4 0h2m1 0h1m2 0h2M5 23.5h3m2 0h6m5 0h1m1 0h2m3 0h2m1 0h3m1 0h1m1 0h1m1 0h1m1 0h1m1 0h1M5 24.5h1m2 0h1m4 0h1m2 0h1m1 0h1m4 0h1m1 0h1m1 0h1m1 0h1m2 0h1m1 0h3m2 0h2m1 0h2M6 25.5h1m1 0h2m1 0h2m3 0h5m1 0h1m5 0h4m1 0h1m3 0h3m2 0h2m1 0h1M5 26.5h3m4 0h1m2 0h2m3 0h1m2 0h7m3 0h1m2 0h2m1 0h1m1 0h1m2 0h2M6 27.5h2m3 0h4m2 0h1m3 0h3m1 0h3m1 0h2m2 0h3m2 0h1m1 0h2m2 0h1M6 28.5h1m1 0h3m2 0h5m1 0h1m3 0h1m2 0h6m3 0h2m1 0h2m5 0h1M8 29.5h2m1 0h2m1 0h3m1 0h4m1 0h4m1 0h2m2 0h1m1 0h1m3 0h1m4 0h2M6 30.5h3m8 0h1m1 0h1m1 0h2m1 0h3m2 0h1m1 0h4m1 0h2m1 0h1m2 0h4M7 31.5h2m1 0h7m1 0h1m1 0h1m1 0h1m1 0h1m3 0h1m2 0h1m4 0h2m1 0h2m1 0h1m1 0h2M8 32.5h1m4 0h2m1 0h2m2 0h2m2 0h2m1 0h4m1 0h1m3 0h2m4 0h1M5 33.5h3m3 0h1m6 0h4m2 0h2m1 0h1m3 0h3m1 0h3m3 0h2m1 0h2M7 34.5h1m2 0h1m2 0h4m2 0h1m1 0h1m3 0h2m1 0h3m2 0h1m2 0h5m2 0h1M5 35.5h1m1 0h1m2 0h6m1 0h1m1 0h2m2 0h2m3 0h1m3 0h2m2 0h1m1 0h3m2 0h1M13 36.5h1m2 0h4m1 0h1m3 0h1m1 0h1m1 0h2m3 0h3m2 0h2m1 0h2m1 0h1M6 37.5h2m3 0h2m2 0h2m3 0h2m1 0h1m1 0h1m1 0h2m1 0h2m1 0h2m2 0h5m1 0h2M13 38.5h1m2 0h4m1 0h1m1 0h3m2 0h2m3 0h3m1 0h1m3 0h3m1 0h1M5 39.5h7m1 0h3m5 0h2m2 0h2m1 0h4m1 0h1m1 0h3m1 0h1m1 0h1m1 0h2M5 40.5h1m5 0h1m6 0h3m3 0h2m2 0h3m3 0h1m2 0h1m3 0h1m2 0h2M5 41.5h1m1 0h3m1 0h1m2 0h3m2 0h2m2 0h2m2 0h2m1 0h2m1 0h1m3 0h5m1 0h2M5 42.5h1m1 0h3m1 0h1m1 0h2m1 0h1m1 0h2m1 0h1m3 0h1m2 0h1m2 0h3m2 0h1m4 0h1m1 0h3M5 43.5h1m1 0h3m1 0h1m1 0h2m3 0h4m3 0h1m2 0h2m3 0h1m1 0h1m1 0h1m2 0h1m4 0h1M5 44.5h1m5 0h1m2 0h1m3 0h1m2 0h2m1 0h3m1 0h1m3 0h1m2 0h1m1 0h1m3 0h2m1 0h1M5 45.5h7m3 0h2m1 0h6m3 0h2m1 0h1m1 0h1m2 0h3m4 0h1m1 0h1"/></svg>
